<?xml version="1.0" encoding="utf-8"?>
<svg width="30" height="30" viewBox="0 0 24 24" fill="none" xmlns="http://www.w3.org/2000/svg">
    <path
        d="M18.3536 13.3536C18.5488 13.1583 18.5488 12.8417 18.3536 12.6464L15.1716 9.46447C14.9763 9.2692 14.6597 9.2692 14.4645 9.46447C14.2692 9.65973 14.2692 9.97631 14.4645 10.1716L17.2929 13L14.4645 15.8284C14.2692 16.0237 14.2692 16.3403 14.4645 16.5355C14.6597 16.7308 14.9763 16.7308 15.1716 16.5355L18.3536 13.3536ZM5.5 3V9H6.5V3H5.5ZM10 13.5H18V12.5H10V13.5ZM5.5 9C5.5 11.4853 7.51472 13.5 10 13.5V12.5C8.067 12.5 6.5 10.933 6.5 9H5.5Z"
        fill="#ffffff" />
</svg>