<svg width="133" height="49" viewBox="0 0 133 49" fill="none" xmlns="http://www.w3.org/2000/svg">
<path d="M132.885 20.3064C132.885 22.1056 132.65 23.7027 132.181 25.0977C131.712 26.4928 131.027 27.6727 130.128 28.6375C129.228 29.5892 128.146 30.3193 126.881 30.8278C125.616 31.3232 124.189 31.5709 122.598 31.5709C121.112 31.5709 119.75 31.3232 118.511 30.8278C117.272 30.3193 116.197 29.5892 115.284 28.6375C114.385 27.6727 113.687 26.4928 113.192 25.0977C112.696 23.7027 112.448 22.1056 112.448 20.3064C112.448 17.9205 112.859 15.8997 113.681 14.2439C114.515 12.5751 115.701 11.3039 117.24 10.4304C118.778 9.55688 120.61 9.12012 122.735 9.12012C124.73 9.12012 126.49 9.55688 128.015 10.4304C129.541 11.3039 130.734 12.5751 131.594 14.2439C132.455 15.9127 132.885 17.9336 132.885 20.3064ZM117.181 20.3064C117.181 21.884 117.37 23.2334 117.748 24.3546C118.139 25.4758 118.739 26.3363 119.547 26.936C120.356 27.5227 121.399 27.8161 122.677 27.8161C123.954 27.8161 124.997 27.5227 125.806 26.936C126.614 26.3363 127.207 25.4758 127.585 24.3546C127.963 23.2334 128.152 21.884 128.152 20.3064C128.152 18.7289 127.963 17.3925 127.585 16.2973C127.207 15.1891 126.614 14.3482 125.806 13.7746C124.997 13.1879 123.948 12.8945 122.657 12.8945C120.753 12.8945 119.365 13.5334 118.491 14.811C117.618 16.0887 117.181 17.9205 117.181 20.3064Z" fill="#212529"/>
<path d="M107.098 9.53083V31.1798H102.502V9.53083H107.098ZM104.829 1.23889C105.533 1.23889 106.14 1.42794 106.648 1.80603C107.17 2.18412 107.43 2.836 107.43 3.76167C107.43 4.67431 107.17 5.32619 106.648 5.71732C106.14 6.09541 105.533 6.28446 104.829 6.28446C104.099 6.28446 103.48 6.09541 102.971 5.71732C102.476 5.32619 102.228 4.67431 102.228 3.76167C102.228 2.836 102.476 2.18412 102.971 1.80603C103.48 1.42794 104.099 1.23889 104.829 1.23889Z" fill="#212529"/>
<path d="M95.8997 31.1798H91.2844V0.75H95.8997V31.1798Z" fill="#212529"/>
<path d="M70.8948 0.75V8.08367C70.8948 8.93112 70.8688 9.76553 70.8166 10.5869C70.7775 11.3952 70.7384 12.0276 70.6993 12.4839H70.8948C71.4815 11.5452 72.2964 10.7564 73.3394 10.1175C74.3954 9.46566 75.7448 9.13972 77.3876 9.13972C79.956 9.13972 82.0225 10.0849 83.587 11.9754C85.1515 13.8528 85.9338 16.6364 85.9338 20.326C85.9338 22.7771 85.5752 24.837 84.8582 26.5059C84.1411 28.1747 83.1307 29.4393 81.8269 30.2998C80.5362 31.1473 79.0173 31.571 77.2702 31.571C75.6275 31.571 74.2977 31.2711 73.2807 30.6714C72.2768 30.0586 71.4881 29.3481 70.9144 28.5397H70.5819L69.741 31.1798H66.2991V0.75H70.8948ZM76.1751 12.875C74.8713 12.875 73.8348 13.1358 73.0656 13.6573C72.3094 14.1788 71.7618 14.961 71.4229 16.004C71.0839 17.034 70.9079 18.3443 70.8948 19.9349V20.3456C70.8948 22.7575 71.2729 24.6024 72.0291 25.88C72.7983 27.1577 74.1934 27.7966 76.2142 27.7966C77.8178 27.7966 79.0499 27.1512 79.9104 25.8605C80.7708 24.5567 81.2011 22.6923 81.2011 20.2673C81.2011 17.8163 80.7708 15.9714 79.9104 14.7329C79.0629 13.4943 77.8178 12.875 76.1751 12.875Z" fill="#212529"/>
<path d="M60.9875 20.3064C60.9875 22.1056 60.7528 23.7027 60.2835 25.0977C59.8141 26.4928 59.1297 27.6727 58.2301 28.6375C57.3305 29.5892 56.2483 30.3193 54.9837 30.8278C53.719 31.3232 52.2914 31.5709 50.7008 31.5709C49.2145 31.5709 47.8521 31.3232 46.6135 30.8278C45.375 30.3193 44.2993 29.5892 43.3867 28.6375C42.4871 27.6727 41.7896 26.4928 41.2942 25.0977C40.7987 23.7027 40.551 22.1056 40.551 20.3064C40.551 17.9205 40.9617 15.8997 41.7831 14.2439C42.6175 12.5751 43.8039 11.3039 45.3424 10.4304C46.8808 9.55688 48.7126 9.12012 50.8377 9.12012C52.8325 9.12012 54.5926 9.55688 56.118 10.4304C57.6434 11.3039 58.8363 12.5751 59.6968 14.2439C60.5573 15.9127 60.9875 17.9336 60.9875 20.3064ZM45.2837 20.3064C45.2837 21.884 45.4727 23.2334 45.8508 24.3546C46.242 25.4758 46.8417 26.3363 47.65 26.936C48.4584 27.5227 49.5014 27.8161 50.7791 27.8161C52.0567 27.8161 53.0998 27.5227 53.9081 26.936C54.7164 26.3363 55.3096 25.4758 55.6877 24.3546C56.0658 23.2334 56.2549 21.884 56.2549 20.3064C56.2549 18.7289 56.0658 17.3925 55.6877 16.2973C55.3096 15.1891 54.7164 14.3482 53.9081 13.7746C53.0998 13.1879 52.0502 12.8945 50.7595 12.8945C48.856 12.8945 47.4675 13.5334 46.594 14.811C45.7205 16.0887 45.2837 17.9205 45.2837 20.3064Z" fill="#212529"/>
<path d="M38.2121 2.58826L30.7415 31.1798H25.6177L20.846 14.0483C20.7286 13.6311 20.5983 13.1357 20.4548 12.562C20.3114 11.9884 20.168 11.4017 20.0246 10.802C19.8942 10.2022 19.7769 9.65466 19.6726 9.15923C19.5813 8.65076 19.5161 8.25963 19.477 7.98584C19.4509 8.25963 19.3923 8.64424 19.301 9.13967C19.2097 9.6351 19.0989 10.1827 18.9686 10.7824C18.8512 11.3691 18.7208 11.9558 18.5774 12.5425C18.434 13.1161 18.3036 13.6246 18.1863 14.0679L13.4927 31.1798H8.38851L0.9375 2.58826H5.65061L9.77702 19.3481C9.90739 19.8827 10.0378 20.4629 10.1681 21.0887C10.3116 21.7014 10.4419 22.3207 10.5593 22.9465C10.6897 23.5723 10.807 24.1851 10.9113 24.7848C11.0156 25.3715 11.1003 25.9061 11.1655 26.3885C11.2307 25.893 11.3155 25.3455 11.4198 24.7457C11.5241 24.133 11.6349 23.5137 11.7522 22.8879C11.8826 22.249 12.013 21.6362 12.1433 21.0496C12.2868 20.4629 12.4302 19.9348 12.5736 19.4655L17.228 2.58826H21.8042L26.5565 19.5241C26.6999 20.0065 26.8368 20.5476 26.9671 21.1473C27.1106 21.7471 27.2475 22.3598 27.3778 22.9856C27.5082 23.6114 27.6255 24.2177 27.7298 24.8044C27.8341 25.3911 27.9189 25.9191 27.9841 26.3885C28.0753 25.7496 28.1927 25.0195 28.3361 24.1981C28.4795 23.3768 28.6425 22.5424 28.825 21.6949C29.0075 20.8475 29.1901 20.0652 29.3726 19.3481L33.4794 2.58826H38.2121Z" fill="#212529"/>
<path d="M83.7358 46.024C83.1117 46.024 82.5426 45.8726 82.0286 45.5697C81.5238 45.2668 81.1199 44.8584 80.817 44.3444C80.5233 43.8304 80.3765 43.2567 80.3765 42.6234C80.3765 41.9993 80.5233 41.4348 80.817 40.93C81.1199 40.4251 81.5238 40.0259 82.0286 39.7322C82.5426 39.4293 83.1117 39.2778 83.7358 39.2778C84.3691 39.2778 84.9382 39.4247 85.443 39.7184C85.9478 40.0121 86.3471 40.416 86.6408 40.93C86.9437 41.4348 87.0951 41.9993 87.0951 42.6234C87.0951 43.2659 86.9437 43.8441 86.6408 44.3581C86.3471 44.8629 85.9478 45.2668 85.443 45.5697C84.9382 45.8726 84.3691 46.024 83.7358 46.024ZM83.7358 45.0878C84.1947 45.0878 84.5986 44.9823 84.9474 44.7712C85.3053 44.5601 85.5853 44.2663 85.7872 43.89C85.9983 43.5137 86.1038 43.0915 86.1038 42.6234C86.1038 42.1553 85.9983 41.7423 85.7872 41.3843C85.5853 41.0172 85.3053 40.728 84.9474 40.5169C84.5986 40.3058 84.1947 40.2003 83.7358 40.2003C83.2861 40.2003 82.8822 40.3058 82.5242 40.5169C82.1663 40.728 81.8863 41.0172 81.6844 41.3843C81.4825 41.7423 81.3815 42.1553 81.3815 42.6234C81.3815 43.1007 81.4825 43.5275 81.6844 43.9038C81.8863 44.2709 82.1663 44.5601 82.5242 44.7712C82.8822 44.9823 83.2861 45.0878 83.7358 45.0878Z" fill="#585F66"/>
<path d="M77.5593 45.8863V39.4154H78.5369V45.8863H77.5593ZM78.0412 38.0111C77.8577 38.0111 77.7016 37.9469 77.5731 37.8184C77.4446 37.6807 77.3804 37.5201 77.3804 37.3365C77.3804 37.1437 77.4446 36.9831 77.5731 36.8546C77.7016 36.7261 77.8577 36.6619 78.0412 36.6619C78.2431 36.6619 78.4038 36.7261 78.5231 36.8546C78.6516 36.9831 78.7158 37.1437 78.7158 37.3365C78.7158 37.5201 78.6516 37.6807 78.5231 37.8184C78.4038 37.9469 78.2431 38.0111 78.0412 38.0111Z" fill="#585F66"/>
<path d="M71.9464 46.024C71.3498 46.024 70.8128 45.8772 70.3355 45.5835C69.8583 45.2898 69.4773 44.8905 69.1928 44.3857C68.9175 43.8717 68.7798 43.298 68.7798 42.6647C68.7798 42.0222 68.9175 41.4486 69.1928 40.9437C69.4773 40.4297 69.8583 40.0259 70.3355 39.7322C70.8128 39.4293 71.3498 39.2778 71.9464 39.2778C72.4328 39.2778 72.8734 39.3742 73.2681 39.567C73.6627 39.7597 73.9886 40.0351 74.2456 40.393C74.5118 40.7418 74.6678 41.1548 74.7137 41.6321V43.656C74.6586 44.1241 74.5026 44.5371 74.2456 44.8951C73.9978 45.2439 73.6765 45.5192 73.2818 45.7211C72.8872 45.9231 72.442 46.024 71.9464 46.024ZM72.1116 45.1016C72.5613 45.1016 72.956 45.0006 73.2956 44.7987C73.6352 44.5876 73.9014 44.2985 74.0941 43.9313C74.2869 43.555 74.3833 43.1282 74.3833 42.6509C74.3833 42.1645 74.2823 41.7377 74.0804 41.3705C73.8876 41.0034 73.6214 40.7143 73.2818 40.5032C72.9422 40.2921 72.5476 40.1865 72.0978 40.1865C71.6481 40.1865 71.2488 40.2921 70.9 40.5032C70.5512 40.7143 70.2759 41.008 70.074 41.3843C69.8812 41.7514 69.7848 42.1737 69.7848 42.6509C69.7848 43.1282 69.8812 43.555 70.074 43.9313C70.2759 44.2985 70.5512 44.5876 70.9 44.7987C71.258 45.0006 71.6618 45.1016 72.1116 45.1016ZM75.2919 45.8864H74.3282V44.1516L74.5209 42.5546L74.3282 40.9988V36.1388H75.2919V45.8864Z" fill="#585F66"/>
<path d="M64.3552 46.024C63.832 46.024 63.3639 45.9047 62.9509 45.6661C62.5378 45.4183 62.212 45.0832 61.9733 44.661C61.7439 44.2388 61.6292 43.7432 61.6292 43.1741V39.4155H62.6067V43.1328C62.6067 43.5275 62.6755 43.8717 62.8132 44.1654C62.96 44.4591 63.1666 44.6886 63.4327 44.8538C63.6989 45.019 64.0064 45.1016 64.3552 45.1016C64.8967 45.1016 65.3235 44.9226 65.6356 44.5647C65.9568 44.2067 66.1174 43.7294 66.1174 43.1328V39.4155H67.0812V43.1741C67.0812 43.734 66.9664 44.2296 66.737 44.661C66.5075 45.0924 66.1863 45.4274 65.7732 45.6661C65.3602 45.9047 64.8875 46.024 64.3552 46.024Z" fill="#585F66"/>
<path d="M57.5656 45.8863V36.6895H58.5293V45.8863H57.5656ZM55.9272 40.2828V39.4155H60.1539V40.2828H55.9272Z" fill="#585F66"/>
<path d="M51.4743 46.0241C50.74 46.0241 50.1067 45.8864 49.5744 45.611C49.042 45.3265 48.5739 44.9318 48.17 44.427L48.8722 43.7386C49.1934 44.1884 49.5652 44.5234 49.9874 44.7437C50.4188 44.9639 50.9282 45.0741 51.5156 45.0741C52.1214 45.0741 52.6124 44.9364 52.9888 44.661C53.3651 44.3857 53.5532 44.0048 53.5532 43.5183C53.5532 43.142 53.466 42.8345 53.2916 42.5959C53.1173 42.3481 52.8878 42.1507 52.6033 42.0039C52.3279 41.8478 52.0204 41.7102 51.6808 41.5908C51.3412 41.4715 51.0016 41.3476 50.662 41.2191C50.3316 41.0814 50.0241 40.9116 49.7396 40.7097C49.455 40.5078 49.2256 40.2508 49.0512 39.9387C48.886 39.6266 48.8034 39.2274 48.8034 38.7409C48.8034 38.2269 48.9273 37.7864 49.1751 37.4192C49.4229 37.0521 49.7625 36.7721 50.1939 36.5794C50.6253 36.3775 51.1163 36.2765 51.6671 36.2765C52.282 36.2765 52.8281 36.3958 53.3054 36.6345C53.7919 36.8731 54.1957 37.1943 54.517 37.5982L53.8286 38.2866C53.5349 37.9378 53.2136 37.6716 52.8648 37.4881C52.5161 37.3045 52.1076 37.2127 51.6395 37.2127C51.0888 37.2127 50.6482 37.3412 50.3178 37.5982C49.9874 37.8552 49.8222 38.2132 49.8222 38.6721C49.8222 39.03 49.9048 39.3192 50.07 39.5394C50.2444 39.7597 50.4738 39.9433 50.7584 40.0902C51.0429 40.237 51.3504 40.3701 51.6808 40.4894C52.0204 40.5996 52.36 40.7235 52.6996 40.8611C53.0392 40.9988 53.3467 41.1732 53.6221 41.3843C53.9066 41.5954 54.1361 41.8662 54.3105 42.1966C54.4849 42.5179 54.572 42.9309 54.572 43.4357C54.572 44.2526 54.2921 44.8905 53.7322 45.3494C53.1815 45.7992 52.4289 46.0241 51.4743 46.0241Z" fill="#585F66"/>
<path d="M42.2603 45.8863V42.0865C42.2603 41.5174 42.0905 41.0585 41.7509 40.7097C41.4205 40.3517 40.9799 40.1727 40.4292 40.1727C40.0529 40.1727 39.7225 40.2553 39.4379 40.4206C39.1534 40.5858 38.9285 40.8106 38.7633 41.0952C38.5981 41.3797 38.5155 41.7055 38.5155 42.0727L38.0749 41.8249C38.0749 41.3384 38.1897 40.9024 38.4191 40.5169C38.6486 40.1314 38.9561 39.8285 39.3416 39.6083C39.7362 39.388 40.186 39.2778 40.6908 39.2778C41.1864 39.2778 41.627 39.3972 42.0125 39.6358C42.398 39.8744 42.6963 40.1957 42.9074 40.5995C43.1277 41.0034 43.2378 41.444 43.2378 41.9212V45.8863H42.2603ZM37.5518 45.8863V39.4155H38.5155V45.8863H37.5518Z" fill="#585F66"/>
<path d="M31.8965 48.75C31.2448 48.75 30.662 48.6261 30.148 48.3783C29.6432 48.1397 29.2347 47.8001 28.9226 47.3595L29.556 46.7262C29.813 47.075 30.1388 47.3457 30.5335 47.5385C30.9281 47.7312 31.3917 47.8276 31.924 47.8276C32.6583 47.8276 33.2411 47.6303 33.6725 47.2356C34.1131 46.8409 34.3334 46.304 34.3334 45.6248V44.0139L34.5261 42.5408L34.3334 41.0814V39.4155H35.2971V45.6248C35.2971 46.2489 35.1548 46.795 34.8703 47.2631C34.5858 47.7312 34.1865 48.0938 33.6725 48.3508C33.1677 48.617 32.5757 48.75 31.8965 48.75ZM31.9653 45.8175C31.3687 45.8175 30.8318 45.6752 30.3545 45.3907C29.8772 45.1062 29.5009 44.7161 29.2255 44.2205C28.9502 43.7248 28.8125 43.1649 28.8125 42.5408C28.8125 41.9166 28.9456 41.3614 29.2118 40.8749C29.4871 40.3793 29.8634 39.9892 30.3407 39.7046C30.818 39.4201 31.3549 39.2778 31.9515 39.2778C32.4564 39.2778 32.9061 39.3742 33.3008 39.567C33.7046 39.7597 34.0259 40.0351 34.2645 40.393C34.5123 40.7418 34.6638 41.1548 34.7189 41.6321V43.4632C34.6638 43.9313 34.5123 44.3444 34.2645 44.7023C34.0167 45.0511 33.6955 45.3265 33.3008 45.5284C32.9061 45.7211 32.461 45.8175 31.9653 45.8175ZM32.1443 44.8951C32.594 44.8951 32.9841 44.7987 33.3146 44.6059C33.6542 44.4132 33.9157 44.1424 34.0993 43.7937C34.2921 43.4357 34.3884 43.0181 34.3884 42.5408C34.3884 42.0727 34.2921 41.6642 34.0993 41.3155C33.9157 40.9667 33.6542 40.6913 33.3146 40.4894C32.9749 40.2875 32.5803 40.1865 32.1305 40.1865C31.6808 40.1865 31.2769 40.2875 30.919 40.4894C30.5702 40.6913 30.2948 40.9667 30.0929 41.3155C29.9002 41.6642 29.8038 42.0727 29.8038 42.5408C29.8038 42.9997 29.9047 43.4082 30.1067 43.7661C30.3086 44.1241 30.584 44.404 30.9327 44.6059C31.2815 44.7987 31.6854 44.8951 32.1443 44.8951Z" fill="#585F66"/>
<path d="M25.9817 45.8863V39.4154H26.9592V45.8863H25.9817ZM26.4636 38.0111C26.28 38.0111 26.124 37.9469 25.9955 37.8184C25.867 37.6807 25.8027 37.5201 25.8027 37.3365C25.8027 37.1437 25.867 36.9831 25.9955 36.8546C26.124 36.7261 26.28 36.6619 26.4636 36.6619C26.6655 36.6619 26.8261 36.7261 26.9455 36.8546C27.074 36.9831 27.1382 37.1437 27.1382 37.3365C27.1382 37.5201 27.074 37.6807 26.9455 37.8184C26.8261 37.9469 26.6655 38.0111 26.4636 38.0111Z" fill="#585F66"/>
<path d="M21.8162 46.024C21.4674 46.024 21.1324 45.9781 20.8111 45.8863C20.4899 45.7854 20.1962 45.6477 19.93 45.4733C19.673 45.2989 19.4481 45.0924 19.2554 44.8538L19.8749 44.2205C20.1319 44.5325 20.421 44.7666 20.7423 44.9226C21.0727 45.0695 21.4399 45.1429 21.8437 45.1429C22.2751 45.1429 22.6101 45.0603 22.8488 44.8951C23.0966 44.7299 23.2205 44.5004 23.2205 44.2067C23.2205 43.9313 23.1333 43.7156 22.9589 43.5596C22.7845 43.4036 22.5596 43.2797 22.2843 43.1879C22.0181 43.0961 21.7336 43.0089 21.4307 42.9263C21.1278 42.8345 20.8387 42.7244 20.5633 42.5959C20.288 42.4582 20.0631 42.27 19.8887 42.0314C19.7235 41.7927 19.6409 41.4807 19.6409 41.0952C19.6409 40.728 19.7281 40.4114 19.9025 40.1452C20.086 39.8698 20.343 39.6587 20.6734 39.5119C21.0131 39.3558 21.4123 39.2778 21.8712 39.2778C22.3577 39.2778 22.7983 39.365 23.1929 39.5394C23.5876 39.7138 23.9043 39.9708 24.1429 40.3104L23.5234 40.93C23.3306 40.6821 23.0874 40.494 22.7937 40.3655C22.5091 40.2278 22.1879 40.159 21.8299 40.159C21.4169 40.159 21.1002 40.2416 20.88 40.4068C20.6689 40.5628 20.5633 40.7693 20.5633 41.0263C20.5633 41.2742 20.6505 41.4715 20.8249 41.6183C20.9993 41.756 21.2196 41.8708 21.4857 41.9625C21.7611 42.0451 22.0502 42.1323 22.3531 42.2241C22.656 42.3067 22.9451 42.4215 23.2205 42.5683C23.4958 42.706 23.7161 42.8987 23.8813 43.1466C24.0557 43.3852 24.1429 43.711 24.1429 44.1241C24.1429 44.7023 23.9318 45.1658 23.5096 45.5146C23.0966 45.8542 22.5321 46.024 21.8162 46.024Z" fill="#585F66"/>
<path d="M15.1001 46.024C14.4484 46.024 13.8656 45.8772 13.3516 45.5835C12.8376 45.2897 12.4291 44.8859 12.1262 44.3719C11.8325 43.8579 11.6857 43.2797 11.6857 42.6372C11.6857 42.0038 11.8325 41.4348 12.1262 40.93C12.4199 40.416 12.8192 40.0121 13.324 39.7184C13.8288 39.4247 14.3933 39.2778 15.0175 39.2778C15.6049 39.2778 16.1235 39.4109 16.5732 39.6771C17.0321 39.9433 17.3901 40.315 17.6471 40.7923C17.9133 41.2604 18.0464 41.8019 18.0464 42.4169C18.0464 42.4903 18.0418 42.5775 18.0326 42.6785C18.0234 42.7703 18.0051 42.8804 17.9775 43.0089H12.3741V42.1828H17.4544L17.1102 42.4857C17.1193 42.0084 17.0367 41.6 16.8623 41.2604C16.6971 40.9116 16.4539 40.6454 16.1327 40.4619C15.8206 40.2691 15.4397 40.1727 14.9899 40.1727C14.5218 40.1727 14.1134 40.2737 13.7646 40.4756C13.4158 40.6776 13.1405 40.9621 12.9385 41.3292C12.7458 41.6872 12.6494 42.114 12.6494 42.6096C12.6494 43.1053 12.7504 43.5412 12.9523 43.9176C13.1634 44.2939 13.4525 44.5876 13.8197 44.7987C14.196 45.0098 14.6274 45.1154 15.1138 45.1154C15.5085 45.1154 15.8711 45.0465 16.2015 44.9088C16.5319 44.762 16.8119 44.5463 17.0413 44.2618L17.6609 44.8951C17.358 45.253 16.9817 45.533 16.5319 45.7349C16.0913 45.9277 15.6141 46.024 15.1001 46.024Z" fill="#585F66"/>
<path d="M2.47526 45.8863V44.9501H5.25635C5.9998 44.9501 6.65607 44.7894 7.22513 44.4682C7.7942 44.1378 8.23936 43.688 8.5606 43.119C8.88185 42.5407 9.04247 41.8799 9.04247 41.1364C9.04247 40.3929 8.88185 39.7367 8.5606 39.1676C8.23936 38.5985 7.7942 38.1534 7.22513 37.8321C6.65607 37.5017 5.9998 37.3365 5.25635 37.3365H2.5028V36.4141H5.28388C5.97227 36.4141 6.60558 36.5334 7.18383 36.772C7.77125 37.0015 8.28066 37.3319 8.71205 37.7633C9.15262 38.1855 9.49222 38.6857 9.73086 39.264C9.9695 39.8331 10.0888 40.4618 10.0888 41.1502C10.0888 41.8202 9.9695 42.4443 9.73086 43.0226C9.49222 43.6008 9.15721 44.1056 8.72582 44.537C8.29443 44.9592 7.78502 45.2897 7.1976 45.5283C6.61935 45.7669 5.99063 45.8863 5.31142 45.8863H2.47526ZM1.85571 45.8863V36.4141H2.86076V45.8863H1.85571Z" fill="#585F66"/>
</svg>
